<?xml version="1.0" encoding="utf-8"?>
<!-- Generator: Adobe Illustrator 16.0.3, SVG Export Plug-In . SVG Version: 6.00 Build 0)  -->
<!DOCTYPE svg PUBLIC "-//W3C//DTD SVG 1.1//EN" "http://www.w3.org/Graphics/SVG/1.1/DTD/svg11.dtd">
<svg version="1.1" id="Layer_1" xmlns="http://www.w3.org/2000/svg" xmlns:xlink="http://www.w3.org/1999/xlink" x="0px" y="0px"
	 width="227px" height="66.703px" viewBox="0 0 227 66.703" enable-background="new 0 0 227 66.703" xml:space="preserve">
<g>
	<g>
		<path fill="#0073A7" d="M51.407,29.475h4.369c-0.398-5.954-2.885-11.503-7.144-15.766c-4.269-4.268-9.824-6.747-15.79-7.145v4.367
			C42.711,11.741,50.589,19.608,51.407,29.475z"/>
		<path fill="#0073A7" d="M15.314,32.838H2.179c0.187,3.332,0.926,6.567,2.224,9.645c1.469,3.455,3.558,6.562,6.225,9.229
			c2.667,2.667,5.772,4.764,9.234,6.225c3.067,1.298,6.298,2.035,9.618,2.227V47.026C22.014,46.235,16.093,40.303,15.314,32.838z"/>
		<path fill="#0073A7" d="M29.48,17.495V0c-3.614,0.191-7.129,0.986-10.467,2.395c-3.722,1.575-7.06,3.827-9.926,6.693
			c-2.863,2.863-5.114,6.204-6.69,9.923C0.986,22.348,0.189,25.859,0,29.475h17.497C18.271,23.22,23.227,18.269,29.48,17.495z"/>
		<path fill="#0073A7" d="M32.843,49.213v8.768c3.037-0.186,5.987-0.868,8.793-2.051c3.198-1.352,6.072-3.29,8.539-5.756
			c2.467-2.469,4.405-5.344,5.761-8.542c1.183-2.806,1.86-5.757,2.05-8.794h-8.772C48.416,41.513,41.517,48.41,32.843,49.213z"/>
	</g>
	<g>
		<g>
			<polygon fill="#585858" points="75.178,42.995 80.86,42.995 80.86,33.47 89.83,33.47 89.83,29.003 80.86,29.003 80.86,21.991 
				91.206,21.991 91.206,17.173 75.178,17.173 			"/>
			<rect x="93.049" y="17.173" fill="#585858" width="5.172" height="4.793"/>
			<rect x="93.049" y="24.074" fill="#585858" width="5.172" height="18.921"/>
			<path fill="#585858" d="M116.891,26.268c-0.704-0.863-1.556-1.528-2.547-1.997c-0.993-0.473-2.09-0.705-3.293-0.705
				c-2.612,0-4.605,0.937-5.993,2.817v-9.209h-5.131v25.821h4.898v-2.391c1.228,1.933,3.2,2.898,5.913,2.898
				c1.256,0,2.393-0.247,3.41-0.744c1.019-0.495,1.897-1.188,2.645-2.075c0.743-0.888,1.318-1.952,1.727-3.193
				c0.401-1.238,0.604-2.617,0.604-4.133c0-1.462-0.197-2.795-0.589-3.996C118.141,28.161,117.594,27.13,116.891,26.268z
				 M112.696,37.706c-0.81,1.069-1.893,1.606-3.247,1.606c-1.413,0-2.53-0.522-3.353-1.567c-0.821-1.047-1.236-2.48-1.236-4.309
				c0-1.802,0.409-3.224,1.217-4.271c0.809-1.043,1.923-1.566,3.33-1.566c1.386,0,2.481,0.522,3.29,1.566
				c0.811,1.048,1.214,2.457,1.214,4.232C113.91,35.196,113.508,36.635,112.696,37.706z"/>
			<path fill="#585858" d="M136.24,26.484c-0.808-0.93-1.789-1.646-2.938-2.157c-1.147-0.509-2.43-0.762-3.837-0.762
				c-1.386,0-2.659,0.252-3.82,0.762c-1.164,0.511-2.167,1.208-3.018,2.096c-0.848,0.884-1.509,1.945-1.978,3.172
				c-0.47,1.228-0.705,2.574-0.705,4.035c0,1.487,0.227,2.842,0.686,4.055c0.456,1.215,1.109,2.253,1.957,3.113
				c0.851,0.863,1.868,1.53,3.058,2c1.188,0.468,2.515,0.704,3.977,0.704c2.22,0,4.124-0.565,5.72-1.705
				c1.589-1.134,2.638-2.683,3.131-4.64h-4.974c-0.391,0.938-0.888,1.625-1.486,2.057c-0.604,0.428-1.389,0.645-2.353,0.645
				c-1.408,0-2.486-0.419-3.231-1.252c-0.747-0.836-1.144-2.075-1.196-3.721h13.555v-0.589c0-1.646-0.221-3.127-0.666-4.446
				C137.679,28.533,137.05,27.409,136.24,26.484z M125.232,31.557c0.133-1.336,0.571-2.377,1.311-3.135
				c0.748-0.759,1.708-1.137,2.88-1.137c1.178,0,2.117,0.365,2.822,1.097c0.705,0.729,1.122,1.79,1.253,3.175H125.232z"/>
			<path fill="#585858" d="M150.814,23.679c-2.718,0-4.765,1.306-6.152,3.919l0.039-3.525h-4.935v18.921h5.171v-7.914
				c0-0.836,0.027-1.514,0.077-2.04c0.054-0.52,0.145-1.001,0.275-1.448c0.289-0.991,0.862-1.78,1.726-2.367
				c0.857-0.589,1.839-0.883,2.937-0.883c0.287,0,0.579,0.015,0.882,0.04c0.301,0.025,0.685,0.079,1.153,0.158v-4.782
				c-0.285-0.025-0.501-0.044-0.644-0.059C151.198,23.689,151.023,23.679,150.814,23.679z"/>
			<path fill="#585858" d="M182.83,26.484c-0.813-0.93-1.79-1.646-2.94-2.157c-1.148-0.509-2.426-0.762-3.837-0.762
				c-1.383,0-2.657,0.252-3.823,0.762c-1.159,0.511-2.164,1.208-3.014,2.096c-0.847,0.884-1.508,1.945-1.979,3.172
				c-0.469,1.228-0.702,2.574-0.702,4.035c0,1.487,0.228,2.842,0.682,4.055c0.063,0.168,0.133,0.33,0.201,0.488h-8.96v-21h-5.679
				v25.821h15.615v-3.12c0.241,0.328,0.498,0.636,0.783,0.924c0.847,0.863,1.867,1.53,3.053,2c1.189,0.468,2.514,0.704,3.98,0.704
				c2.219,0,4.125-0.565,5.719-1.705c1.593-1.134,2.635-2.683,3.134-4.64h-4.975c-0.395,0.938-0.891,1.625-1.492,2.057
				c-0.599,0.428-1.382,0.645-2.349,0.645c-1.41,0-2.484-0.419-3.23-1.252c-0.746-0.836-1.142-2.075-1.194-3.721h13.553v-0.589
				c0-1.646-0.219-3.127-0.666-4.446C184.264,28.533,183.641,27.409,182.83,26.484z M171.823,31.557
				c0.128-1.336,0.568-2.377,1.312-3.135c0.742-0.759,1.703-1.137,2.878-1.137c1.174,0,2.116,0.365,2.82,1.097
				c0.706,0.729,1.123,1.79,1.256,3.175H171.823z"/>
			<path fill="#585858" d="M203.924,41.013c-0.051-0.375-0.091-0.814-0.114-1.312c-0.026-0.492-0.04-1.085-0.04-1.763V36.49
				l0.04-2.507l0.039-2.741c0-0.183,0.005-0.36,0.018-0.53c0.013-0.17,0.018-0.345,0.018-0.527c0-0.708-0.024-1.3-0.074-1.783
				c-0.058-0.483-0.148-0.902-0.279-1.254c-0.126-0.353-0.297-0.673-0.503-0.959c-0.213-0.289-0.486-0.561-0.829-0.823
				c-1.432-1.203-3.655-1.799-6.655-1.799c-5.538,0-8.462,2.115-8.778,6.345h4.901c0.18-1.072,0.546-1.816,1.095-2.236
				c0.548-0.417,1.422-0.626,2.625-0.626c2.272,0,3.404,0.836,3.404,2.507c0,0.367-0.045,0.665-0.137,0.902
				c-0.087,0.238-0.298,0.429-0.622,0.587c-0.328,0.157-0.792,0.296-1.394,0.414c-0.598,0.113-1.407,0.241-2.426,0.372
				c-0.576,0.077-1.063,0.141-1.471,0.196c-0.404,0.051-0.752,0.108-1.037,0.174c-0.289,0.067-0.555,0.126-0.807,0.175
				c-0.247,0.055-0.513,0.119-0.801,0.198c-1.331,0.395-2.356,1.031-3.077,1.918c-0.718,0.891-1.074,1.998-1.074,3.332
				c0,1.802,0.581,3.201,1.743,4.19c1.16,0.994,2.787,1.489,4.879,1.489c2.558,0,4.647-0.769,6.266-2.312
				c0,0.34,0.019,0.616,0.058,0.822c0.044,0.208,0.14,0.537,0.293,0.981h5.25c-0.131-0.315-0.236-0.628-0.313-0.941
				C204.04,41.741,203.979,41.395,203.924,41.013z M198.755,35.904c0,1.33-0.405,2.375-1.218,3.133
				c-0.809,0.759-1.918,1.134-3.325,1.134c-0.918,0-1.635-0.227-2.155-0.682c-0.524-0.458-0.786-1.094-0.786-1.902
				c0-0.835,0.274-1.461,0.826-1.878c0.546-0.419,1.554-0.732,3.016-0.941c0.599-0.08,1.082-0.15,1.449-0.217
				c0.364-0.063,0.673-0.129,0.918-0.196c0.248-0.063,0.465-0.142,0.652-0.233c0.18-0.092,0.387-0.202,0.623-0.334V35.904
				L198.755,35.904z"/>
			<path fill="#585858" d="M223.55,29.438c-0.026-0.468-0.076-0.893-0.157-1.271c-0.076-0.38-0.179-0.733-0.313-1.056
				c-0.132-0.325-0.301-0.648-0.508-0.962c-0.496-0.808-1.226-1.442-2.194-1.9c-0.968-0.456-2.054-0.683-3.253-0.683
				c-1.405,0-2.605,0.247-3.584,0.74c-0.979,0.5-1.885,1.297-2.725,2.39v-2.623h-4.93v18.921h5.171v-9.756
				c0-1.879,0.323-3.26,0.975-4.132c0.654-0.875,1.699-1.313,3.138-1.313c1.198,0,2.042,0.323,2.526,0.961
				c0.483,0.639,0.72,1.768,0.72,3.39v10.85h5.175V31.084C223.591,30.458,223.575,29.911,223.55,29.438z"/>
		</g>
		<g>
			<path fill="#585858" d="M227,25.531c0,0.199-0.04,0.391-0.118,0.564c-0.074,0.174-0.181,0.33-0.316,0.461
				c-0.13,0.13-0.288,0.234-0.462,0.308c-0.172,0.074-0.366,0.113-0.565,0.113c-0.201,0-0.39-0.039-0.571-0.113
				c-0.176-0.074-0.33-0.178-0.464-0.308c-0.136-0.131-0.236-0.287-0.317-0.461c-0.076-0.173-0.116-0.365-0.116-0.564
				c0-0.2,0.041-0.39,0.116-0.564c0.081-0.177,0.182-0.331,0.317-0.458c0.134-0.133,0.288-0.237,0.464-0.311
				c0.182-0.075,0.37-0.114,0.571-0.114c0.199,0,0.394,0.039,0.567,0.114c0.178,0.074,0.336,0.178,0.466,0.311
				c0.13,0.127,0.237,0.281,0.311,0.458C226.96,25.141,227,25.331,227,25.531z M226.663,25.531c0-0.156-0.031-0.301-0.087-0.439
				c-0.063-0.138-0.141-0.259-0.241-0.358c-0.102-0.101-0.223-0.182-0.36-0.239c-0.135-0.057-0.281-0.088-0.437-0.088
				c-0.152,0-0.297,0.031-0.438,0.088c-0.139,0.057-0.26,0.138-0.365,0.239c-0.098,0.099-0.182,0.22-0.235,0.358
				c-0.063,0.138-0.093,0.283-0.093,0.439c0,0.155,0.03,0.298,0.093,0.436c0.054,0.133,0.138,0.253,0.235,0.354
				c0.105,0.104,0.227,0.186,0.365,0.247c0.142,0.055,0.286,0.087,0.438,0.087c0.155,0,0.302-0.033,0.434-0.087
				c0.134-0.061,0.257-0.143,0.358-0.247c0.105-0.101,0.184-0.222,0.246-0.354C226.631,25.829,226.663,25.686,226.663,25.531z
				 M225.858,26.204c-0.01-0.025-0.019-0.055-0.024-0.074c-0.005-0.025-0.009-0.065-0.016-0.121
				c-0.01-0.145-0.027-0.239-0.068-0.279c-0.031-0.04-0.104-0.06-0.212-0.06h-0.223v0.533h-0.36v-1.398h0.682
				c0.355,0,0.535,0.138,0.535,0.41c0,0.057-0.011,0.1-0.024,0.141c-0.021,0.04-0.051,0.079-0.097,0.133l-0.071,0.054l0.071,0.06
				c0.061,0.043,0.097,0.177,0.11,0.399c0,0.025,0,0.04,0.005,0.049c0,0.01,0.007,0.018,0.007,0.028c0,0.01,0,0.02,0,0.031
				c0.005,0.013,0.005,0.03,0.012,0.044c0,0.015,0.005,0.025,0.005,0.03c0,0.004,0.003,0.01,0.007,0.02H225.858L225.858,26.204z
				 M225.818,25.242c0-0.113-0.085-0.167-0.251-0.167h-0.262v0.335h0.247c0.093,0,0.161-0.01,0.208-0.035
				C225.8,25.351,225.818,25.312,225.818,25.242z"/>
		</g>
	</g>
	<g>
		<path fill="#585858" d="M81.954,49.406v12.982h-1.435V49.406h-5.341V48.15h12.113v1.256H81.954z"/>
		<path fill="#585858" d="M86.228,57.211c0.031,1.445,0.361,2.545,0.991,3.296c0.628,0.754,1.539,1.13,2.725,1.13
			c1.797,0,2.913-0.944,3.357-2.828h1.3c-0.261,1.262-0.792,2.226-1.598,2.899c-0.809,0.665-1.833,1-3.08,1
			c-0.775,0-1.478-0.133-2.098-0.399c-0.627-0.267-1.154-0.646-1.596-1.141c-0.446-0.493-0.784-1.088-1.018-1.777
			c-0.236-0.693-0.352-1.474-0.352-2.339c0-0.868,0.122-1.667,0.362-2.396c0.245-0.729,0.59-1.355,1.041-1.881
			c0.45-0.527,0.979-0.931,1.598-1.223c0.616-0.285,1.289-0.434,2.017-0.434c0.746,0,1.417,0.138,2.011,0.413
			c0.592,0.271,1.099,0.666,1.514,1.184c0.421,0.518,0.741,1.139,0.97,1.859c0.23,0.722,0.343,1.543,0.343,2.454v0.183H86.228z
			 M93.367,56.137c-0.076-1.217-0.427-2.175-1.049-2.875c-0.623-0.7-1.442-1.047-2.465-1.047c-0.591,0-1.102,0.106-1.529,0.318
			c-0.424,0.214-0.781,0.502-1.068,0.868c-0.292,0.363-0.518,0.784-0.686,1.253c-0.168,0.473-0.283,0.97-0.34,1.482H93.367
			L93.367,56.137z"/>
		<path fill="#585858" d="M105.184,58.488c-0.197,1.34-0.698,2.378-1.507,3.117c-0.806,0.734-1.846,1.104-3.121,1.104
			c-0.778,0-1.477-0.133-2.101-0.399c-0.622-0.267-1.154-0.646-1.598-1.141c-0.441-0.493-0.788-1.09-1.028-1.79
			c-0.242-0.698-0.365-1.482-0.365-2.35c0-0.897,0.123-1.71,0.365-2.439c0.24-0.73,0.587-1.352,1.028-1.861
			c0.444-0.509,0.982-0.905,1.623-1.186c0.636-0.281,1.342-0.424,2.121-0.424c1.291,0,2.328,0.33,3.112,0.993
			c0.784,0.662,1.245,1.594,1.38,2.795h-1.345c-0.351-1.776-1.401-2.669-3.147-2.669c-0.565,0-1.079,0.108-1.544,0.33
			c-0.459,0.222-0.856,0.532-1.183,0.938c-0.327,0.404-0.576,0.892-0.751,1.468c-0.177,0.582-0.264,1.228-0.264,1.942
			c0,1.445,0.328,2.594,0.982,3.444c0.653,0.851,1.535,1.277,2.644,1.277c0.93,0,1.683-0.274,2.261-0.821
			c0.577-0.547,0.943-1.321,1.093-2.328H105.184L105.184,58.488z"/>
		<path fill="#585858" d="M114.104,62.388v-6.864c0-1.004-0.202-1.8-0.604-2.385c-0.406-0.586-1.146-0.876-2.226-0.876
			c-0.712,0-1.301,0.14-1.746,0.418c-0.449,0.284-0.797,0.65-1.048,1.106c-0.253,0.459-0.424,0.97-0.516,1.531
			c-0.091,0.563-0.136,1.135-0.136,1.71v5.359h-1.323V48.15h1.302v5.341c0.332-0.805,0.83-1.401,1.493-1.791
			c0.662-0.384,1.433-0.581,2.315-0.581c0.697,0,1.292,0.104,1.777,0.308c0.49,0.207,0.884,0.496,1.188,0.868
			c0.304,0.375,0.524,0.82,0.663,1.334c0.137,0.517,0.204,1.09,0.204,1.713v7.047H114.104z"/>
		<path fill="#585858" d="M125.01,62.388v-6.616c0-0.482-0.031-0.937-0.094-1.355c-0.06-0.419-0.185-0.789-0.376-1.106
			c-0.188-0.321-0.467-0.57-0.829-0.752c-0.366-0.186-0.846-0.274-1.438-0.274c-0.703,0-1.281,0.126-1.735,0.388
			c-0.455,0.257-0.815,0.603-1.084,1.025c-0.267,0.429-0.454,0.916-0.561,1.473c-0.104,0.556-0.156,1.128-0.156,1.722v5.497h-1.327
			V51.417h1.258v2.073c0.44-0.79,0.961-1.382,1.562-1.776c0.602-0.398,1.374-0.596,2.315-0.596c0.731,0,1.339,0.104,1.826,0.299
			c0.486,0.196,0.879,0.482,1.173,0.854c0.297,0.372,0.506,0.821,0.629,1.346c0.121,0.522,0.186,1.109,0.186,1.745v7.025H125.01
			L125.01,62.388z"/>
		<path fill="#585858" d="M138.173,56.96c0,0.882-0.124,1.675-0.366,2.387c-0.242,0.705-0.589,1.311-1.036,1.814
			c-0.449,0.497-0.99,0.882-1.632,1.147c-0.642,0.267-1.36,0.4-2.169,0.4c-0.79,0-1.507-0.136-2.155-0.409
			c-0.648-0.276-1.198-0.663-1.654-1.164c-0.455-0.502-0.808-1.112-1.05-1.828c-0.244-0.711-0.362-1.51-0.362-2.392
			c0-0.885,0.123-1.681,0.376-2.396c0.251-0.715,0.604-1.325,1.06-1.824c0.456-0.503,1.005-0.893,1.652-1.164
			c0.649-0.275,1.367-0.413,2.158-0.413s1.503,0.138,2.145,0.413c0.642,0.271,1.184,0.662,1.632,1.164
			c0.448,0.499,0.794,1.113,1.036,1.834C138.049,55.254,138.173,56.064,138.173,56.96z M136.827,56.935
			c0-1.443-0.346-2.588-1.037-3.43c-0.692-0.847-1.633-1.268-2.82-1.268c-0.578,0-1.108,0.108-1.586,0.33
			c-0.476,0.222-0.881,0.537-1.22,0.946c-0.332,0.412-0.592,0.902-0.774,1.472c-0.181,0.569-0.272,1.216-0.272,1.93
			c0,1.46,0.345,2.608,1.037,3.445c0.69,0.835,1.639,1.254,2.84,1.254c1.185,0,2.122-0.425,2.808-1.268
			C136.483,59.503,136.827,58.366,136.827,56.935z"/>
		<path fill="#585858" d="M139.654,62.388V48.15h1.323v14.238H139.654z"/>
		<path fill="#585858" d="M152.889,56.96c0,0.882-0.125,1.675-0.367,2.387c-0.243,0.705-0.589,1.311-1.038,1.814
			c-0.448,0.497-0.99,0.882-1.63,1.147c-0.64,0.267-1.359,0.4-2.165,0.4c-0.793,0-1.511-0.136-2.158-0.409
			c-0.647-0.276-1.197-0.663-1.655-1.164c-0.454-0.502-0.807-1.112-1.048-1.828c-0.245-0.711-0.366-1.51-0.366-2.392
			c0-0.885,0.124-1.681,0.376-2.396c0.254-0.715,0.604-1.325,1.06-1.824c0.457-0.503,1.009-0.893,1.656-1.164
			c0.646-0.275,1.367-0.413,2.157-0.413c0.789,0,1.504,0.138,2.144,0.413c0.64,0.271,1.183,0.662,1.63,1.164
			c0.449,0.499,0.795,1.113,1.038,1.834C152.764,55.254,152.889,56.064,152.889,56.96z M151.54,56.935
			c0-1.443-0.345-2.588-1.038-3.43c-0.691-0.847-1.631-1.268-2.813-1.268c-0.582,0-1.11,0.108-1.589,0.33
			c-0.481,0.222-0.887,0.537-1.219,0.946c-0.336,0.412-0.593,0.902-0.777,1.472s-0.275,1.216-0.275,1.93
			c0,1.46,0.35,2.608,1.041,3.445c0.692,0.835,1.639,1.254,2.841,1.254c1.185,0,2.119-0.425,2.805-1.268
			C151.197,59.503,151.54,58.366,151.54,56.935z"/>
		<path fill="#585858" d="M163.657,61.338c0,0.823-0.082,1.565-0.242,2.229c-0.156,0.66-0.43,1.222-0.81,1.687
			c-0.382,0.466-0.888,0.82-1.516,1.074c-0.634,0.251-1.411,0.375-2.34,0.375c-1.341,0-2.4-0.289-3.181-0.868
			c-0.785-0.576-1.217-1.391-1.29-2.44h1.349c0.06,0.424,0.18,0.784,0.361,1.075c0.184,0.286,0.415,0.518,0.696,0.695
			c0.283,0.172,0.598,0.298,0.959,0.374c0.356,0.073,0.731,0.113,1.128,0.113c0.683,0,1.257-0.088,1.728-0.262
			c0.46-0.178,0.826-0.434,1.1-0.775c0.274-0.343,0.474-0.758,0.596-1.243c0.12-0.491,0.182-1.05,0.182-1.688l0.022-1.824
			c-0.396,0.819-0.896,1.43-1.494,1.824c-0.602,0.395-1.37,0.592-2.314,0.592c-0.73,0-1.389-0.128-1.973-0.387
			c-0.586-0.259-1.083-0.627-1.495-1.108c-0.411-0.479-0.729-1.051-0.96-1.722c-0.227-0.668-0.342-1.423-0.342-2.256
			c0-0.855,0.119-1.631,0.355-2.326c0.232-0.703,0.565-1.297,0.992-1.795c0.424-0.493,0.938-0.878,1.537-1.149
			c0.604-0.276,1.269-0.413,1.998-0.413c1.706,0,2.951,0.79,3.743,2.371v-2.073h1.211L163.657,61.338L163.657,61.338z
			 M162.377,56.687c0-1.386-0.32-2.467-0.957-3.251c-0.641-0.785-1.523-1.173-2.647-1.173c-0.547,0-1.04,0.101-1.483,0.305
			c-0.441,0.206-0.818,0.503-1.138,0.89c-0.321,0.387-0.563,0.851-0.731,1.394c-0.169,0.536-0.251,1.143-0.251,1.813
			c0,1.385,0.317,2.47,0.956,3.259c0.642,0.794,1.507,1.188,2.603,1.188c0.546,0,1.047-0.107,1.495-0.321
			c0.447-0.212,0.833-0.513,1.15-0.896c0.32-0.391,0.567-0.854,0.742-1.396C162.291,57.961,162.377,57.354,162.377,56.687z"/>
		<path fill="#585858" d="M165.685,50.339v-2.191h1.325v2.191H165.685z M165.685,62.388V51.417h1.325v10.971H165.685z"/>
		<path fill="#585858" d="M169.813,57.211c0.028,1.445,0.363,2.545,0.993,3.296c0.631,0.754,1.538,1.13,2.725,1.13
			c1.797,0,2.915-0.944,3.355-2.828h1.297c-0.255,1.262-0.786,2.226-1.595,2.899c-0.804,0.665-1.831,1-3.08,1
			c-0.774,0-1.475-0.133-2.099-0.399c-0.621-0.267-1.154-0.646-1.597-1.141c-0.442-0.493-0.776-1.088-1.013-1.777
			c-0.237-0.693-0.359-1.474-0.359-2.339c0-0.868,0.123-1.667,0.37-2.396c0.241-0.729,0.587-1.355,1.035-1.881
			c0.449-0.527,0.982-0.931,1.599-1.223c0.615-0.285,1.288-0.434,2.018-0.434c0.748,0,1.416,0.138,2.01,0.413
			c0.591,0.271,1.1,0.666,1.516,1.184c0.417,0.518,0.744,1.139,0.972,1.859c0.224,0.722,0.341,1.543,0.341,2.454v0.183H169.813z
			 M176.955,56.137c-0.075-1.217-0.424-2.175-1.05-2.875c-0.623-0.7-1.444-1.047-2.466-1.047c-0.591,0-1.1,0.106-1.525,0.318
			c-0.426,0.214-0.783,0.502-1.073,0.868c-0.29,0.363-0.518,0.784-0.685,1.253c-0.169,0.473-0.283,0.97-0.343,1.482H176.955
			L176.955,56.137z"/>
		<path fill="#585858" d="M187.838,59.379c0,0.5-0.107,0.953-0.321,1.357c-0.212,0.399-0.507,0.752-0.889,1.051
			c-0.384,0.295-0.837,0.521-1.369,0.683c-0.533,0.16-1.127,0.238-1.779,0.238c-1.428,0-2.534-0.33-3.313-0.991
			c-0.772-0.662-1.177-1.624-1.206-2.889h1.302c0.076,0.976,0.38,1.687,0.913,2.136c0.533,0.448,1.299,0.673,2.304,0.673
			c0.915,0,1.646-0.195,2.2-0.582c0.557-0.388,0.834-0.906,0.834-1.561c0-0.382-0.104-0.695-0.309-0.937
			c-0.208-0.244-0.455-0.441-0.754-0.594c-0.295-0.153-0.619-0.273-0.97-0.367c-0.35-0.09-0.677-0.174-0.98-0.247
			c-0.453-0.108-0.93-0.217-1.425-0.336c-0.499-0.11-0.945-0.272-1.355-0.487c-0.412-0.212-0.754-0.496-1.027-0.853
			c-0.274-0.36-0.409-0.844-0.409-1.449c0-0.963,0.353-1.716,1.06-2.273c0.707-0.555,1.673-0.833,2.906-0.833
			c2.633,0,4.039,1.165,4.226,3.49h-1.306c-0.105-0.821-0.392-1.42-0.854-1.8c-0.464-0.379-1.169-0.571-2.11-0.571
			c-0.82,0-1.456,0.157-1.901,0.479c-0.455,0.319-0.677,0.768-0.677,1.346c0,0.381,0.108,0.695,0.318,0.937
			c0.213,0.241,0.478,0.435,0.788,0.569c0.313,0.137,0.651,0.244,1.015,0.323c0.366,0.074,0.698,0.148,1.005,0.228
			c0.455,0.104,0.924,0.227,1.403,0.365c0.48,0.134,0.921,0.319,1.324,0.557c0.4,0.236,0.729,0.542,0.979,0.914
			C187.712,58.327,187.838,58.799,187.838,59.379z"/>
	</g>
</g>
</svg>
